<svg xmlns="http://www.w3.org/2000/svg" viewBox="0 0 1200 900" font-family="Pretendard, system-ui, sans-serif" role="img" aria-label="Lumped parameter thermal network and temperature validation">
<rect width="1200" height="900" fill="#ffffff"/>
<g stroke="#26539C" stroke-width="2.4" fill="none">
<path d="M 214.0 264.0 L 247.1 297.1 L 237.9 306.3 L 282.1 313.7 L 272.9 322.9 L 306.0 356.0"/>
<path d="M 316.2 411.1 L 297.3 453.5 L 285.5 448.2 L 294.5 491.8 L 282.7 486.5 L 263.8 528.9"/>
<path d="M 275.6 582.4 L 314.8 616.7 L 306.2 626.5 L 353.8 633.5 L 345.2 643.3 L 384.4 677.6"/>
<path d="M 377.2 708.9 L 321.6 724.1 L 318.2 711.6 L 281.8 748.4 L 278.4 735.9 L 222.8 751.1"/>
</g>
<circle cx="190" cy="240" r="34" fill="#e08b72" stroke="#475569" stroke-width="2.5"/>
<circle cx="330" cy="380" r="34" fill="#e9ae73" stroke="#475569" stroke-width="2.5"/>
<circle cx="250" cy="560" r="34" fill="#eecd7b" stroke="#475569" stroke-width="2.5"/>
<circle cx="410" cy="700" r="34" fill="#cfd685" stroke="#475569" stroke-width="2.5"/>
<circle cx="190" cy="760" r="34" fill="#a2d2a3" stroke="#475569" stroke-width="2.5"/>
<g stroke="#e08a3c" stroke-width="3" fill="none"><path d="M 95 160 L 160 215"/></g>
<path d="M 168 222 l -22 -4 l 10 -19 z" fill="#e08a3c"/>
<path d="M 560 170 L 560 760 L 1110 760" fill="none" stroke="#64748b" stroke-width="1.6"/>
<line x1="560" y1="620.0" x2="1110" y2="620.0" stroke="#e2e8f0"/>
<line x1="560" y1="480.0" x2="1110" y2="480.0" stroke="#e2e8f0"/>
<line x1="560" y1="340.0" x2="1110" y2="340.0" stroke="#e2e8f0"/>
<line x1="560" y1="200.0" x2="1110" y2="200.0" stroke="#e2e8f0"/>
<polyline points="560.0,760.0 565.2,745.3 570.4,731.1 575.6,717.3 580.8,704.0 586.0,691.0 591.2,678.5 596.4,666.4 601.6,654.7 606.8,643.3 612.0,632.3 617.2,621.6 622.4,611.3 627.6,601.3 632.8,591.6 638.0,582.2 643.2,573.1 648.4,564.3 653.6,555.8 658.8,547.5 664.0,539.5 669.2,531.8 674.4,524.3 679.6,517.0 684.8,510.0 690.0,503.2 695.2,496.6 700.4,490.2 705.6,484.0 710.8,478.0 716.0,472.2 721.2,466.6 726.4,461.1 731.6,455.8 736.8,450.7 742.0,445.8 747.2,441.0 752.4,436.3 757.6,431.8 762.8,427.5 768.0,423.3 773.2,419.2 778.4,415.2 783.6,411.4 788.8,407.7 794.0,404.1 799.2,400.6 804.4,397.3 809.6,394.0 814.8,390.8 820.0,387.8 825.2,384.8 830.4,381.9 835.6,379.1 840.8,376.5 846.0,373.8 851.2,371.3 856.4,368.9 861.6,366.5 866.8,364.2 872.0,362.0 877.2,359.8 882.4,357.7 887.6,355.7 892.8,353.8 898.0,351.9 903.2,350.0 908.4,348.3 913.6,346.5 918.8,344.9 924.0,343.3 929.2,341.7 934.4,340.2 939.6,338.7 944.8,337.3 950.0,335.9 955.2,334.6 960.4,333.3 965.6,332.0 970.8,330.8 976.0,329.7 981.2,328.5 986.4,327.4 991.6,326.4 996.8,325.3 1002.0,324.3 1007.2,323.4 1012.4,322.4 1017.6,321.5 1022.8,320.6 1028.0,319.8 1033.2,319.0 1038.4,318.2 1043.6,317.4 1048.8,316.6 1054.0,315.9 1059.2,315.2 1064.4,314.5 1069.6,313.9 1074.8,313.2 1080.0,312.6" fill="none" stroke="#26539C" stroke-width="3"/>
<circle cx="560.0" cy="761.4" r="7" fill="#ffffff" stroke="#26539C" stroke-width="2.4"/>
<circle cx="612.0" cy="630.5" r="7" fill="#ffffff" stroke="#26539C" stroke-width="2.4"/>
<circle cx="664.0" cy="526.9" r="7" fill="#ffffff" stroke="#26539C" stroke-width="2.4"/>
<circle cx="716.0" cy="473.2" r="7" fill="#ffffff" stroke="#26539C" stroke-width="2.4"/>
<circle cx="768.0" cy="423.0" r="7" fill="#ffffff" stroke="#26539C" stroke-width="2.4"/>
<circle cx="820.0" cy="385.2" r="7" fill="#ffffff" stroke="#26539C" stroke-width="2.4"/>
<circle cx="872.0" cy="371.3" r="7" fill="#ffffff" stroke="#26539C" stroke-width="2.4"/>
<circle cx="924.0" cy="342.9" r="7" fill="#ffffff" stroke="#26539C" stroke-width="2.4"/>
<circle cx="976.0" cy="325.8" r="7" fill="#ffffff" stroke="#26539C" stroke-width="2.4"/>
<circle cx="1028.0" cy="311.1" r="7" fill="#ffffff" stroke="#26539C" stroke-width="2.4"/>
<circle cx="1080.0" cy="324.7" r="7" fill="#ffffff" stroke="#26539C" stroke-width="2.4"/>
<polyline points="560.0,760.0 565.2,750.0 570.4,740.3 575.6,730.9 580.8,721.8 586.0,713.0 591.2,704.4 596.4,696.2 601.6,688.2 606.8,680.4 612.0,672.9 617.2,665.6 622.4,658.6 627.6,651.8 632.8,645.2 638.0,638.8 643.2,632.6 648.4,626.6 653.6,620.8 658.8,615.1 664.0,609.7 669.2,604.4 674.4,599.3 679.6,594.3 684.8,589.5 690.0,584.9 695.2,580.4 700.4,576.0 705.6,571.8 710.8,567.7 716.0,563.8 721.2,559.9 726.4,556.2 731.6,552.6 736.8,549.1 742.0,545.8 747.2,542.5 752.4,539.3 757.6,536.3 762.8,533.3 768.0,530.4 773.2,527.6 778.4,524.9 783.6,522.3 788.8,519.8 794.0,517.3 799.2,515.0 804.4,512.7 809.6,510.4 814.8,508.3 820.0,506.2 825.2,504.2 830.4,502.2 835.6,500.3 840.8,498.5 846.0,496.7 851.2,495.0 856.4,493.3 861.6,491.7 866.8,490.1 872.0,488.6 877.2,487.2 882.4,485.7 887.6,484.4 892.8,483.0 898.0,481.7 903.2,480.5 908.4,479.3 913.6,478.1 918.8,477.0 924.0,475.9 929.2,474.8 934.4,473.8 939.6,472.8 944.8,471.8 950.0,470.8 955.2,469.9 960.4,469.1 965.6,468.2 970.8,467.4 976.0,466.6 981.2,465.8 986.4,465.1 991.6,464.3 996.8,463.6 1002.0,462.9 1007.2,462.3 1012.4,461.6 1017.6,461.0 1022.8,460.4 1028.0,459.9 1033.2,459.3 1038.4,458.7 1043.6,458.2 1048.8,457.7 1054.0,457.2 1059.2,456.7 1064.4,456.3 1069.6,455.8 1074.8,455.4 1080.0,455.0" fill="none" stroke="#e08a3c" stroke-width="3"/>
<circle cx="560.0" cy="765.8" r="7" fill="#ffffff" stroke="#e08a3c" stroke-width="2.4"/>
<circle cx="612.0" cy="685.1" r="7" fill="#ffffff" stroke="#e08a3c" stroke-width="2.4"/>
<circle cx="664.0" cy="600.5" r="7" fill="#ffffff" stroke="#e08a3c" stroke-width="2.4"/>
<circle cx="716.0" cy="558.0" r="7" fill="#ffffff" stroke="#e08a3c" stroke-width="2.4"/>
<circle cx="768.0" cy="544.0" r="7" fill="#ffffff" stroke="#e08a3c" stroke-width="2.4"/>
<circle cx="820.0" cy="491.9" r="7" fill="#ffffff" stroke="#e08a3c" stroke-width="2.4"/>
<circle cx="872.0" cy="474.8" r="7" fill="#ffffff" stroke="#e08a3c" stroke-width="2.4"/>
<circle cx="924.0" cy="471.3" r="7" fill="#ffffff" stroke="#e08a3c" stroke-width="2.4"/>
<circle cx="976.0" cy="463.2" r="7" fill="#ffffff" stroke="#e08a3c" stroke-width="2.4"/>
<circle cx="1028.0" cy="470.0" r="7" fill="#ffffff" stroke="#e08a3c" stroke-width="2.4"/>
<circle cx="1080.0" cy="469.4" r="7" fill="#ffffff" stroke="#e08a3c" stroke-width="2.4"/>
</svg>